<svg width="15" height="15" viewBox="0 0 15 15" fill="none" xmlns="http://www.w3.org/2000/svg">
<path fill-rule="evenodd" clip-rule="evenodd" d="M6.5002 0.214844C3.0208 0.214844 0.200195 3.03545 0.200195 6.51484C0.200195 9.99424 3.0208 12.8148 6.5002 12.8148C7.95443 12.8148 9.29359 12.3221 10.3598 11.4945C10.3823 11.5245 10.4072 11.5532 10.4345 11.5805L13.4345 14.5805C13.7469 14.8929 14.2535 14.8929 14.5659 14.5805C14.8783 14.2681 14.8783 13.7616 14.5659 13.4492L11.5659 10.4492C11.5386 10.4219 11.5098 10.397 11.4799 10.3745C12.3075 9.30823 12.8002 7.96908 12.8002 6.51484C12.8002 3.03545 9.97959 0.214844 6.5002 0.214844ZM1.8002 6.51484C1.8002 3.91911 3.90446 1.81484 6.5002 1.81484C9.09593 1.81484 11.2002 3.91911 11.2002 6.51484C11.2002 9.11058 9.09593 11.2148 6.5002 11.2148C3.90446 11.2148 1.8002 9.11058 1.8002 6.51484Z" fill="#130817" fill-opacity="0.3"/>
</svg>
